<svg xmlns="http://www.w3.org/2000/svg" viewBox="0 0 48 48"><path fill="#2e7d32" d="M42,13c-1.382,0-2.262-2.723-3.909-1.813C37.38,11.579,37,12.386,37,13.197v4.606 c0,0.812,0.38,1.618,1.091,2.01C39.738,20.723,40.618,18,42,18v5c0,0.552-0.448,1-1,1h-9.748l-3.822,3.822 c-0.237,0.237-0.622,0.237-0.859,0L22.748,24H17c-1.657,0-3,1.343-3,3v3c0,1.657,1.343,3,3,3h12c0.552,0,1,0.448,1,1v6 c0,0.552-0.448,1-1,1h-7.748l-3.822,3.822c-0.237,0.237-0.622,0.237-0.859,0L12.749,41H9c-1.657,0-3-1.343-3-3V10 c0-1.657,1.343-3,3-3h2.749l3.822,3.822c0.237,0.237,0.622,0.237,0.859,0L20.252,7H41c0.552,0,1,0.448,1,1V13z"/></svg>