<svg xmlns="http://www.w3.org/2000/svg" viewBox="0 0 48 48"><path fill="#ffb74d" d="M32,44v-4.6l2.6,0.5c2.9,0.6,5.6-1.5,5.8-4.4L41,29l2.9-1.2c1-0.4,1.4-1.6,0.8-2.6L41,19 c-0.6-7.6-4.9-15-16-15C13.6,4,8,12.4,8,21c0,3.7,1.3,6.9,3.3,9.6c1.8,2.5,2.7,5.5,2.7,8.5V44H32z"/><path fill="#ffcc80" d="M8,21c0,2.214,0.473,4.245,1.276,6.101C10.741,27.674,12.331,28,14,28c7.18,0,13-5.82,13-13 c0-4.428-2.218-8.334-5.599-10.681C12.428,5.898,8,13.363,8,21z"/><path fill="#546e7a" d="M22.2,16.1c0.1-0.4,0.1-0.8,0.1-1.1s0-0.8-0.1-1.1l2.3-1.7c0.2-0.2,0.3-0.5,0.2-0.7l-2.3-3.9 c-0.1-0.2-0.4-0.3-0.7-0.2l-2.6,1.2c-0.6-0.5-1.3-0.9-2-1.2l-0.3-2.9c0-0.3-0.3-0.5-0.5-0.5h-4.6c-0.2,0-0.5,0.2-0.5,0.5l-0.3,2.9 c-0.7,0.2-1.4,0.6-2,1.1L6.3,7.3C6,7.2,5.7,7.3,5.6,7.5l-2.3,4c-0.1,0.2,0,0.5,0.2,0.7l2.3,1.7c-0.1,0.4-0.1,0.8-0.1,1.1 s0,0.8,0.1,1.1l-2.3,1.7c-0.2,0.2-0.3,0.5-0.2,0.7l2.3,3.9c0.1,0.2,0.4,0.3,0.7,0.2l2.6-1.2c0.6,0.5,1.3,0.9,2,1.2l0.3,2.9 c0,0.3,0.3,0.5,0.5,0.5h4.5c0.3,0,0.5-0.2,0.5-0.5l0.3-2.9c0.7-0.3,1.4-0.7,2-1.2l2.6,1.2c0.3,0.1,0.6,0,0.7-0.2l2.3-3.9 c0.1-0.2,0.1-0.6-0.2-0.7L22.2,16.1z M14,20.2c-2.9,0-5.2-2.3-5.2-5.2s2.3-5.2,5.2-5.2s5.2,2.3,5.2,5.2S16.9,20.2,14,20.2"/><path fill="#455a64" d="M14,9c-3.3,0-6,2.7-6,6s2.7,6,6,6s6-2.7,6-6S17.3,9,14,9 M14,18c-1.7,0-3-1.3-3-3s1.3-3,3-3 s3,1.3,3,3S15.7,18,14,18"/></svg>